HIERARCHY
ROOT Hips
{
	OFFSET 0.000000 0.000000 0.000000
	CHANNELS 6 Xposition Yposition Zposition Xrotation Yrotation Zrotation
	JOINT LeftUpLeg_virtual
	{
		OFFSET 0.000000 0.000000 0.000000
		CHANNELS 3 Xrotation Yrotation Zrotation
		JOINT LeftUpLeg
		{
			OFFSET 13.026900 -6.336304 -1.092800
			CHANNELS 3 Xrotation Yrotation Zrotation
			JOINT LeftLeg
			{
				OFFSET 0.524474 -46.096886 9.782700
				CHANNELS 3 Xrotation Yrotation Zrotation
				JOINT LeftFoot
				{
					OFFSET -0.524474 -53.427422 -12.948200
					CHANNELS 3 Xrotation Yrotation Zrotation
					JOINT LeftToeBase
					{
						OFFSET 0.192200 -14.009700 16.364100
						CHANNELS 3 Xrotation Yrotation Zrotation
						JOINT LeftToe_End
						{
							OFFSET -1.784700 -0.561700 9.474800
							CHANNELS 3 Xrotation Yrotation Zrotation
							End Site
							{
								OFFSET 0 0 0
							}
						}
					}
				}
			}
		}
	}
	JOINT RightUpLeg_virtual
	{
		OFFSET 0.000000 0.000000 0.000000
		CHANNELS 3 Xrotation Yrotation Zrotation
		JOINT RightUpLeg
		{
			OFFSET -12.883000 -6.336304 -1.092800
			CHANNELS 3 Xrotation Yrotation Zrotation
			JOINT RightLeg
			{
				OFFSET -0.524587 -46.096825 9.782800
				CHANNELS 3 Xrotation Yrotation Zrotation
				JOINT RightFoot
				{
					OFFSET 0.524587 -53.427383 -12.948300
					CHANNELS 3 Xrotation Yrotation Zrotation
					JOINT RightToeBase
					{
						OFFSET -0.192200 -14.009700 16.364100
						CHANNELS 3 Xrotation Yrotation Zrotation
						JOINT RightToe_End
						{
							OFFSET 1.784700 -0.561700 9.474800
							CHANNELS 3 Xrotation Yrotation Zrotation
							End Site
							{
								OFFSET 0 0 0
							}
						}
					}
				}
			}
		}
	}
	JOINT Spine_virtual
	{
		OFFSET 0.000000 0.000000 0.000000
		CHANNELS 3 Xrotation Yrotation Zrotation
		JOINT Spine
		{
			OFFSET 0.072000 7.257294 -0.789700
			CHANNELS 3 Xrotation Yrotation Zrotation
			JOINT Spine1
			{
				OFFSET 0.000000 12.508769 -0.658067
				CHANNELS 3 Xrotation Yrotation Zrotation
				JOINT Spine1_split
				{
					OFFSET 0.000000 12.508769 -0.658067
					CHANNELS 3 Xrotation Yrotation Zrotation
					JOINT Spine2
					{
						OFFSET 0.000000 12.508769 -0.658067
						CHANNELS 3 Xrotation Yrotation Zrotation
						JOINT Neck_virtual
						{
							OFFSET 0.000000 0.000000 0.000000
							CHANNELS 3 Xrotation Yrotation Zrotation
							JOINT Neck
							{
								OFFSET 0.000000 14.033295 7.520400
								CHANNELS 3 Xrotation Yrotation Zrotation
								JOINT Head
								{
									OFFSET 0.000000 8.198502 5.703100
									CHANNELS 3 Xrotation Yrotation Zrotation
									JOINT HeadTop_End
									{
										OFFSET 0.000000 17.760803 13.332701
										CHANNELS 3 Xrotation Yrotation Zrotation
										End Site
										{
											OFFSET 0 0 0
										}
									}
								}
							}
						}
						JOINT LeftShoulder_virtual
						{
							OFFSET 0.000000 0.000000 0.000000
							CHANNELS 3 Xrotation Yrotation Zrotation
							JOINT LeftShoulder
							{
								OFFSET 6.292450 5.785301 -0.669000
								CHANNELS 3 Xrotation Yrotation Zrotation
								JOINT LeftShoulder_split
								{
									OFFSET 6.292450 5.785301 -0.669000
									CHANNELS 3 Xrotation Yrotation Zrotation
									JOINT LeftArm
									{
										OFFSET 13.907140 -6.093903 1.965100
										CHANNELS 3 Xrotation Yrotation Zrotation
										JOINT LeftForeArm
										{
											OFFSET 34.140198 0.000000 0.000000
											CHANNELS 3 Xrotation Yrotation Zrotation
											JOINT LeftHand
											{
												OFFSET 40.960209 0.000000 0.000000
												CHANNELS 3 Xrotation Yrotation Zrotation
												End Site
												{
													OFFSET 0 0 0
												}
											}
										}
									}
								}
							}
						}
						JOINT RightShoulder_virtual
						{
							OFFSET 0.000000 0.000000 0.000000
							CHANNELS 3 Xrotation Yrotation Zrotation
							JOINT RightShoulder
							{
								OFFSET -6.292450 5.785301 -0.669000
								CHANNELS 3 Xrotation Yrotation Zrotation
								JOINT RightShoulder_split
								{
									OFFSET -6.292450 5.785301 -0.669000
									CHANNELS 3 Xrotation Yrotation Zrotation
									JOINT RightArm
									{
										OFFSET -13.907140 -6.093903 1.965100
										CHANNELS 3 Xrotation Yrotation Zrotation
										JOINT RightForeArm
										{
											OFFSET -34.140198 0.000000 0.000000
											CHANNELS 3 Xrotation Yrotation Zrotation
											JOINT RightHand
											{
												OFFSET -40.960209 0.000000 0.000000
												CHANNELS 3 Xrotation Yrotation Zrotation
												End Site
												{
													OFFSET 0 0 0
												}
											}
										}
									}
								}
							}
						}
					}
				}
			}
		}
	}
}
MOTION
Frames: 9
Frame Time: 0.03333333
-5.415545 53.552422 -1.762154 0.000000 0.000000 0.000000 -176.522851 39.513966 171.042786 -85.031067 -21.082888 18.138464 108.992477 -9.349806 3.173226 -16.555258 22.862023 -18.636197 0.973251 -5.059665 1.757876 0.000000 0.000000 0.000000 -176.069914 42.171118 169.199960 -53.181878 19.769636 -9.935025 97.756891 2.830264 -2.560224 -20.655908 -22.480697 38.311419 -2.555958 3.200975 -16.300407 0.000000 0.000000 0.000000 -178.715096 40.142767 174.068273 7.720519 1.390200 -5.504422 6.438358 0.308066 -3.516682 0.092881 0.143615 -0.001740 0.000000 0.000000 0.000000 9.624835 3.572412 -2.786843 -11.014991 12.458459 12.662224 -13.970006 28.758911 -17.987670 0.000000 0.000000 0.000000 6.472128 2.214770 -4.020835 1.194712 -12.599124 -7.233767 -1.570130 -4.335817 -3.299829 -8.078396 -10.339493 -29.398681 58.765978 -36.668209 18.714660 0.000000 0.000000 0.000000 8.379673 1.935045 -2.826680 -4.979628 -8.063081 15.494030 -25.532425 -11.506138 5.244688 25.634233 3.236264 42.076407 19.042829 68.928466 12.728832 0.000000 0.000000 0.000000 
-5.424489 53.537071 -1.769653 0.000000 0.000000 0.000000 -176.535870 39.504592 171.052362 -85.060772 -21.098488 18.123991 109.004929 -9.344123 3.173872 -16.534973 22.847910 -18.667074 0.955224 -5.060276 1.763760 0.000000 0.000000 0.000000 -176.081293 42.167187 169.207678 -53.185959 19.771436 -9.928404 97.758824 2.835508 -2.566729 -20.665586 -22.484119 38.316887 -2.565775 3.203395 -16.300096 0.000000 0.000000 0.000000 -178.727377 40.137521 174.076742 7.707148 1.386763 -5.503280 6.439096 0.310593 -3.513743 0.091474 0.140737 -0.002896 0.000000 0.000000 0.000000 9.625376 3.575500 -2.787025 -10.988181 12.470751 12.666688 -13.938906 28.768887 -18.010818 0.000000 0.000000 0.000000 6.473646 2.214925 -4.018285 1.191361 -12.650254 -7.235799 -1.552528 -4.348463 -3.319630 -8.127302 -10.361480 -29.448149 58.777282 -36.639884 18.708161 0.000000 0.000000 0.000000 8.379965 1.937351 -2.823494 -4.972357 -8.073943 15.492133 -25.523336 -11.504353 5.230626 25.663222 3.227998 42.110698 19.034107 68.862855 12.730373 0.000000 0.000000 0.000000 
-5.443197 53.517139 -1.773331 0.000000 0.000000 0.000000 -176.558409 39.479197 171.061418 -85.099355 -21.119944 18.121241 109.012681 -9.347383 3.165695 -16.535606 22.817657 -18.661026 0.925916 -5.060290 1.772418 0.000000 0.000000 0.000000 -176.102849 42.158161 169.219166 -53.169348 19.770538 -9.929884 97.746598 2.842938 -2.572177 -20.676497 -22.495696 38.331394 -2.555374 3.202958 -16.303137 0.000000 0.000000 0.000000 -178.744343 40.120456 174.075444 7.685044 1.388617 -5.514925 6.437705 0.320010 -3.504401 0.091136 0.140592 -0.004150 0.000000 0.000000 0.000000 9.623339 3.584809 -2.779483 -10.950154 12.485384 12.682092 -13.871368 28.768651 -18.070519 0.000000 0.000000 0.000000 6.467649 2.222345 -4.007862 1.187099 -12.733402 -7.247103 -1.545494 -4.342415 -3.338167 -8.141662 -10.395299 -29.472669 58.810429 -36.642920 18.737980 0.000000 0.000000 0.000000 8.378001 1.945476 -2.813974 -4.959394 -8.115502 15.476018 -25.522438 -11.476587 5.214215 25.693941 3.233375 42.159776 19.032865 68.727365 12.725626 0.000000 0.000000 0.000000 
-5.468781 53.499081 -1.768822 0.000000 0.000000 0.000000 -176.584337 39.442666 171.066077 -85.147256 -21.147319 18.129754 109.016151 -9.356414 3.148255 -16.551135 22.777270 -18.618763 0.914633 -5.057955 1.775489 0.000000 0.000000 0.000000 -176.130921 42.142035 169.231310 -53.129699 19.762068 -9.941355 97.724106 2.851454 -2.576400 -20.682933 -22.515295 38.362693 -2.535664 3.201234 -16.309281 0.000000 0.000000 0.000000 -178.766391 40.091489 174.070007 7.658473 1.396295 -5.534209 6.436964 0.336377 -3.489415 0.091493 0.141281 -0.004956 0.000000 0.000000 0.000000 9.618881 3.600795 -2.765137 -10.908243 12.497966 12.709198 -13.784333 28.750848 -18.154937 0.000000 0.000000 0.000000 6.458919 2.237039 -3.991597 1.183016 -12.834846 -7.267300 -1.542812 -4.318873 -3.348781 -8.114016 -10.423003 -29.455580 58.849176 -36.671972 18.789516 0.000000 0.000000 0.000000 8.375837 1.959671 -2.799818 -4.942713 -8.185709 15.444055 -25.521203 -11.431613 5.191299 25.703482 3.260839 42.217328 19.036758 68.534077 12.715304 0.000000 0.000000 0.000000 
-5.495782 53.486034 -1.754349 0.000000 0.000000 0.000000 -176.612887 39.396907 171.068863 -85.213140 -21.181424 18.142220 109.014662 -9.370324 3.123377 -16.559066 22.726109 -18.557851 0.927143 -5.052604 1.771030 0.000000 0.000000 0.000000 -176.162750 42.113823 169.242047 -53.065471 19.743398 -9.961622 97.691711 2.860273 -2.580467 -20.687147 -22.543354 38.412840 -2.525809 3.200056 -16.316770 0.000000 0.000000 0.000000 -178.792414 40.050655 174.064475 7.631924 1.410451 -5.553789 6.440442 0.358233 -3.470088 0.092438 0.142857 -0.004706 0.000000 0.000000 0.000000 9.614915 3.622089 -2.746965 -10.872584 12.504966 12.748111 -13.697086 28.712039 -18.251953 0.000000 0.000000 0.000000 6.453492 2.257361 -3.971972 1.180124 -12.943656 -7.295250 -1.538851 -4.303160 -3.357451 -8.051946 -10.436154 -29.391786 58.883908 -36.735288 18.857821 0.000000 0.000000 0.000000 8.377202 1.979923 -2.783281 -4.925141 -8.281638 15.396462 -25.515833 -11.390704 5.165635 25.681769 3.323275 42.277020 19.046645 68.288204 12.697379 0.000000 0.000000 0.000000 
-5.520394 53.480099 -1.734684 0.000000 0.000000 0.000000 -176.642216 39.343450 171.072196 -85.307676 -21.223720 18.149522 109.010051 -9.390585 3.097325 -16.534720 22.661541 -18.500209 0.939544 -5.045684 1.766195 0.000000 0.000000 0.000000 -176.196696 42.069959 169.252375 -52.967458 19.716883 -9.988716 97.650504 2.867160 -2.584958 -20.702513 -22.579518 38.472413 -2.527290 3.199029 -16.322344 0.000000 0.000000 0.000000 -178.818942 39.999838 174.060691 7.611401 1.431143 -5.566012 6.451766 0.383741 -3.448997 0.093838 0.144721 -0.003579 0.000000 0.000000 0.000000 9.615281 3.647507 -2.728086 -10.849411 12.503676 12.797660 -13.623704 28.654583 -18.351707 0.000000 0.000000 0.000000 6.456896 2.280826 -3.952438 1.179181 -13.047575 -7.329587 -1.533964 -4.296223 -3.364937 -7.989882 -10.432165 -29.289050 58.906932 -36.841211 18.939152 0.000000 0.000000 0.000000 8.385601 2.005979 -2.767086 -4.908957 -8.395787 15.337391 -25.502523 -11.367714 5.141620 25.624298 3.433037 42.338645 19.063519 67.981931 12.669835 0.000000 0.000000 0.000000 
-5.541648 53.480888 -1.713055 0.000000 0.000000 0.000000 -176.669373 39.283833 171.072046 -85.429636 -21.270794 18.146149 109.002764 -9.411395 3.070598 -16.475589 22.585718 -18.449797 0.934746 -5.038672 1.765398 0.000000 0.000000 0.000000 -176.228293 42.010677 169.257524 -52.835184 19.686451 -10.018321 97.607139 2.869079 -2.587517 -20.739019 -22.622920 38.524722 -2.525299 3.195820 -16.321866 0.000000 0.000000 0.000000 -178.843244 39.939630 174.056812 7.599142 1.456774 -5.567514 6.472455 0.410927 -3.428959 0.094113 0.147869 -0.003628 0.000000 0.000000 0.000000 9.622264 3.675110 -2.711592 -10.842362 12.494489 12.855696 -13.560610 28.581581 -18.448869 0.000000 0.000000 0.000000 6.471298 2.305659 -3.936078 1.181329 -13.136668 -7.369681 -1.528219 -4.314743 -3.371599 -7.964143 -10.413138 -29.163125 58.918052 -36.997912 19.035066 0.000000 0.000000 0.000000 8.404481 2.036206 -2.753054 -4.893491 -8.518118 15.273819 -25.477535 -11.363428 5.127979 25.538924 3.597400 42.407787 19.092216 67.611148 12.629259 0.000000 0.000000 0.000000 
-5.561923 53.484673 -1.687355 0.000000 0.000000 0.000000 -176.692349 39.214367 171.064588 -85.572455 -21.316588 18.131058 108.997976 -9.424315 3.041089 -16.392312 22.506457 -18.400893 0.921236 -5.031590 1.767053 0.000000 0.000000 0.000000 -176.253346 41.940783 169.252101 -52.675529 19.657759 -10.050879 97.566998 2.865236 -2.586710 -20.795512 -22.670870 38.562688 -2.513018 3.189633 -16.313854 0.000000 0.000000 0.000000 -178.861850 39.869566 174.044476 7.595010 1.484938 -5.558256 6.502084 0.436424 -3.412624 0.095103 0.151645 -0.004357 0.000000 0.000000 0.000000 9.636559 3.702240 -2.699875 -10.849891 12.478362 12.919898 -13.499543 28.499342 -18.541908 0.000000 0.000000 0.000000 6.496254 2.329063 -3.924486 1.187513 -13.206409 -7.413323 -1.521522 -4.345077 -3.376111 -7.997337 -10.390575 -29.032433 58.910634 -37.195656 19.134763 0.000000 0.000000 0.000000 8.434773 2.067627 -2.742145 -4.878200 -8.638082 15.212493 -25.444943 -11.368292 5.124989 25.432085 3.810197 42.496785 19.135552 67.181454 12.572311 0.000000 0.000000 0.000000 
-5.582632 53.487896 -1.660557 0.000000 0.000000 0.000000 -176.707335 39.141963 171.047020 -85.724543 -21.359531 18.103155 109.000721 -9.425197 3.011502 -16.296092 22.432517 -18.356186 0.917463 -5.024121 1.769210 0.000000 0.000000 0.000000 -176.270735 41.862305 169.235982 -52.495560 19.635575 -10.087622 97.529248 2.858846 -2.585949 -20.856889 -22.716559 38.599837 -2.504594 3.183158 -16.300467 0.000000 0.000000 0.000000 -178.871180 39.794844 174.017784 7.599131 1.513155 -5.541376 6.538428 0.458729 -3.401140 0.096533 0.154595 -0.005852 0.000000 0.000000 0.000000 9.655221 3.727234 -2.693362 -10.865012 12.455649 12.988850 -13.429959 28.416620 -18.631556 0.000000 0.000000 0.000000 6.530613 2.349001 -3.918197 1.198562 -13.252730 -7.457133 -1.514204 -4.374672 -3.377080 -8.086141 -10.373369 -28.907300 58.870083 -37.404168 19.215103 0.000000 0.000000 0.000000 8.474533 2.097708 -2.735320 -4.861939 -8.747258 15.155486 -25.404156 -11.367688 5.121808 25.308260 4.048210 42.613263 19.190779 66.715170 12.498986 0.000000 0.000000 0.000000 
